<svg width="52" height="52" viewBox="0 0 52 52" fill="none" xmlns="http://www.w3.org/2000/svg">
<path d="M45.5 27.7117C45.1592 31.3998 43.7751 34.9145 41.5096 37.8447C39.2441 40.7749 36.1909 42.9992 32.7074 44.2575C29.2238 45.5158 25.454 45.7559 21.839 44.9499C18.2239 44.1438 14.9132 42.3248 12.2942 39.7058C9.67519 37.0868 7.85623 33.7761 7.05016 30.1611C6.24409 26.546 6.48425 22.7762 7.74253 19.2926C9.00081 15.8091 11.2252 12.756 14.1553 10.4905C17.0855 8.22497 20.6003 6.84083 24.2884 6.5C22.1291 9.42125 21.09 13.0205 21.3602 16.6431C21.6303 20.2657 23.1917 23.671 25.7604 26.2396C28.3291 28.8083 31.7344 30.3697 35.357 30.6398C38.9796 30.91 42.5788 29.8709 45.5 27.7117Z" stroke="white" stroke-width="2" stroke-linecap="round" stroke-linejoin="round"/>
</svg>
