<svg width="19" height="19" viewBox="0 0 19 19" fill="none" xmlns="http://www.w3.org/2000/svg">
<g clip-path="url(#clip0_120_963)">
<path d="M15.0417 2.375H3.95833C3.08388 2.375 2.375 3.08388 2.375 3.95833V15.0417C2.375 15.9161 3.08388 16.625 3.95833 16.625H15.0417C15.9161 16.625 16.625 15.9161 16.625 15.0417V3.95833C16.625 3.08388 15.9161 2.375 15.0417 2.375Z" stroke="white" stroke-width="2" stroke-linecap="round" stroke-linejoin="round"/>
<path d="M7.125 8.70833L9.5 11.0833L17.4167 3.16666" stroke="white" stroke-width="2" stroke-linecap="round" stroke-linejoin="round"/>
<path d="M16.625 9.5V15.0417C16.625 15.4616 16.4582 15.8643 16.1613 16.1613C15.8643 16.4582 15.4616 16.625 15.0417 16.625H3.95833C3.53841 16.625 3.13568 16.4582 2.83875 16.1613C2.54181 15.8643 2.375 15.4616 2.375 15.0417V3.95833C2.375 3.53841 2.54181 3.13568 2.83875 2.83875C3.13568 2.54181 3.53841 2.375 3.95833 2.375H12.6667" stroke="white" stroke-width="2" stroke-linecap="round" stroke-linejoin="round"/>
</g>
<defs>
<clipPath id="clip0_120_963">
<rect width="19" height="19" fill="white"/>
</clipPath>
</defs>
</svg>
