<svg width="23" height="23" viewBox="0 0 23 23" fill="none" xmlns="http://www.w3.org/2000/svg">
<path d="M2.875 5.75H4.79167H20.125" stroke="black" stroke-width="2" stroke-linecap="round" stroke-linejoin="round"/>
<path d="M18.2083 5.75001V19.1667C18.2083 19.675 18.0064 20.1625 17.6469 20.522C17.2875 20.8814 16.8 21.0833 16.2916 21.0833H6.70829C6.19996 21.0833 5.71245 20.8814 5.353 20.522C4.99356 20.1625 4.79163 19.675 4.79163 19.1667V5.75001M7.66663 5.75001V3.83334C7.66663 3.32501 7.86856 2.8375 8.22801 2.47805C8.58745 2.11861 9.07496 1.91667 9.58329 1.91667H13.4166C13.925 1.91667 14.4125 2.11861 14.7719 2.47805C15.1314 2.8375 15.3333 3.32501 15.3333 3.83334V5.75001" stroke="black" stroke-width="2" stroke-linecap="round" stroke-linejoin="round"/>
<path d="M9.58337 10.5417V16.2917" stroke="black" stroke-width="2" stroke-linecap="round" stroke-linejoin="round"/>
<path d="M13.4166 10.5417V16.2917" stroke="black" stroke-width="2" stroke-linecap="round" stroke-linejoin="round"/>
</svg>
