<svg width="23" height="23" viewBox="0 0 23 23" fill="none" xmlns="http://www.w3.org/2000/svg">
<path d="M16.2916 2.87499C16.5433 2.62329 16.8421 2.42363 17.171 2.28742C17.4999 2.1512 17.8523 2.08109 18.2083 2.08109C18.5643 2.08109 18.9167 2.1512 19.2456 2.28742C19.5744 2.42363 19.8733 2.62329 20.125 2.87499C20.3767 3.12669 20.5763 3.42551 20.7125 3.75437C20.8488 4.08323 20.9189 4.4357 20.9189 4.79166C20.9189 5.14762 20.8488 5.50009 20.7125 5.82895C20.5763 6.15782 20.3767 6.45663 20.125 6.70833L7.18746 19.6458L1.91663 21.0833L3.35413 15.8125L16.2916 2.87499Z" stroke="black" stroke-width="2" stroke-linecap="round" stroke-linejoin="round"/>
</svg>
